<?xml version="1.0" standalone="no"?><svg xmlns="http://www.w3.org/2000/svg" viewBox="0 0 1440 320"><path fill="#008000" fill-opacity="1" d="M0,96L6.2,80C12.3,64,25,32,37,58.7C49.2,85,62,171,74,192C86.2,213,98,171,111,181.3C123.1,192,135,256,148,234.7C160,213,172,107,185,74.7C196.9,43,209,85,222,106.7C233.8,128,246,128,258,117.3C270.8,107,283,85,295,106.7C307.7,128,320,192,332,213.3C344.6,235,357,213,369,202.7C381.5,192,394,192,406,165.3C418.5,139,431,85,443,96C455.4,107,468,181,480,213.3C492.3,245,505,235,517,229.3C529.2,224,542,224,554,202.7C566.2,181,578,139,591,149.3C603.1,160,615,224,628,240C640,256,652,224,665,224C676.9,224,689,256,702,240C713.8,224,726,160,738,128C750.8,96,763,96,775,112C787.7,128,800,160,812,154.7C824.6,149,837,107,849,74.7C861.5,43,874,21,886,21.3C898.5,21,911,43,923,64C935.4,85,948,107,960,96C972.3,85,985,43,997,69.3C1009.2,96,1022,192,1034,234.7C1046.2,277,1058,267,1071,250.7C1083.1,235,1095,213,1108,197.3C1120,181,1132,171,1145,186.7C1156.9,203,1169,245,1182,256C1193.8,267,1206,245,1218,208C1230.8,171,1243,117,1255,101.3C1267.7,85,1280,107,1292,112C1304.6,117,1317,107,1329,133.3C1341.5,160,1354,224,1366,245.3C1378.5,267,1391,245,1403,213.3C1415.4,181,1428,139,1434,117.3L1440,96L1440,0L1433.8,0C1427.7,0,1415,0,1403,0C1390.8,0,1378,0,1366,0C1353.8,0,1342,0,1329,0C1316.9,0,1305,0,1292,0C1280,0,1268,0,1255,0C1243.1,0,1231,0,1218,0C1206.2,0,1194,0,1182,0C1169.2,0,1157,0,1145,0C1132.3,0,1120,0,1108,0C1095.4,0,1083,0,1071,0C1058.5,0,1046,0,1034,0C1021.5,0,1009,0,997,0C984.6,0,972,0,960,0C947.7,0,935,0,923,0C910.8,0,898,0,886,0C873.8,0,862,0,849,0C836.9,0,825,0,812,0C800,0,788,0,775,0C763.1,0,751,0,738,0C726.2,0,714,0,702,0C689.2,0,677,0,665,0C652.3,0,640,0,628,0C615.4,0,603,0,591,0C578.5,0,566,0,554,0C541.5,0,529,0,517,0C504.6,0,492,0,480,0C467.7,0,455,0,443,0C430.8,0,418,0,406,0C393.8,0,382,0,369,0C356.9,0,345,0,332,0C320,0,308,0,295,0C283.1,0,271,0,258,0C246.2,0,234,0,222,0C209.2,0,197,0,185,0C172.3,0,160,0,148,0C135.4,0,123,0,111,0C98.5,0,86,0,74,0C61.5,0,49,0,37,0C24.6,0,12,0,6,0L0,0Z"></path></svg>